<svg width="16" height="16" viewBox="0 0 16 16" fill="none" xmlns="http://www.w3.org/2000/svg">
<g id="bx-search (3) 1">
<path id="Vector" d="M6.66683 11.9999C7.85015 11.9997 8.99937 11.6035 9.9315 10.8746L12.8622 13.8053L13.8048 12.8626L10.8742 9.93192C11.6035 8.99969 11.9999 7.85021 12.0002 6.66659C12.0002 3.72592 9.6075 1.33325 6.66683 1.33325C3.72616 1.33325 1.3335 3.72592 1.3335 6.66659C1.3335 9.60725 3.72616 11.9999 6.66683 11.9999ZM6.66683 2.66659C8.87283 2.66659 10.6668 4.46059 10.6668 6.66659C10.6668 8.87259 8.87283 10.6666 6.66683 10.6666C4.46083 10.6666 2.66683 8.87259 2.66683 6.66659C2.66683 4.46059 4.46083 2.66659 6.66683 2.66659Z" fill="#728AFF"/>
</g>
</svg>
