<svg width="16" height="16" viewBox="0 0 16 16" fill="none" xmlns="http://www.w3.org/2000/svg">
<g id="bxs-send 1">
<path id="Vector" d="M14.284 7.39666L2.95067 2.06332C2.83655 2.00962 2.70953 1.9894 2.58438 2.005C2.45922 2.0206 2.34106 2.07138 2.24361 2.15145C2.14615 2.23151 2.07342 2.33758 2.03384 2.45734C1.99426 2.57709 1.98946 2.70562 2.02 2.82799L2.828 6.06066L8 7.99999L2.828 9.93932L2.02 13.172C1.98889 13.2944 1.99328 13.4232 2.03268 13.5433C2.07208 13.6633 2.14484 13.7697 2.24247 13.8499C2.3401 13.9301 2.45854 13.9809 2.58396 13.9962C2.70938 14.0116 2.83657 13.9909 2.95067 13.9367L14.284 8.60332C14.3985 8.54948 14.4954 8.46416 14.5632 8.35732C14.631 8.25048 14.6671 8.12654 14.6671 7.99999C14.6671 7.87344 14.631 7.7495 14.5632 7.64266C14.4954 7.53582 14.3985 7.45049 14.284 7.39666Z" fill="white"/>
</g>
</svg>
